<?xml version="1.0" encoding="UTF-8"?>
<svg version="1.1" xmlns="http://www.w3.org/2000/svg" viewBox="0 0 735 1006">
<path d="M0 0 C242.55 0 485.1 0 735 0 C735 331.98 735 663.96 735 1006 C492.45 1006 249.9 1006 0 1006 C0 674.02 0 342.04 0 0 Z " fill="transparent" transform="translate(0,0)"/>
<path d="M0 0 C0.94875 0.33 1.8975 0.66 2.875 1 C6.24509256 2.07842962 9.49246882 2.57909626 13 3 C13 3.66 13 4.32 13 5 C13.71027344 4.98839844 14.42054688 4.97679687 15.15234375 4.96484375 C16.07144531 4.95582031 16.99054688 4.94679688 17.9375 4.9375 C18.85402344 4.92589844 19.77054688 4.91429687 20.71484375 4.90234375 C23 5 23 5 24 6 C25.49496842 6.20699563 26.9966592 6.36679259 28.5 6.5 C32.88888889 6.88888889 32.88888889 6.88888889 34 8 C36.49768714 8.53688602 38.98896033 9.03465136 41.5 9.5 C48.86486486 10.86486486 48.86486486 10.86486486 50 12 C51.155 12.165 52.31 12.33 53.5 12.5 C57 13 57 13 58 14 C59.37024654 14.18524792 60.7470321 14.3230586 62.125 14.4375 C66.29974017 14.85163422 70.00885498 15.72623031 74 17 C74 17.66 74 18.32 74 19 C76.97 19 79.94 19 83 19 C83 19.66 83 20.32 83 21 C84.918125 20.938125 84.918125 20.938125 86.875 20.875 C92.05600773 20.86677618 97.00140935 21.64125611 102 23 C102.33 23.33 102.66 23.66 103 24 C104.155 24.165 105.31 24.33 106.5 24.5 C110 25 110 25 111 26 C117.88967509 27.65496112 124.80157262 29.01772086 131.875 29.5 C136.19177776 29.81336609 139.83120134 30.76158308 143.88671875 32.23828125 C149.40545782 34.22747556 154.85960453 35.15717029 160.6796875 35.71484375 C164.51532081 36.18622629 168.2487992 37.08658704 172 38 C172 38.66 172 39.32 172 40 C173.299375 39.979375 174.59875 39.95875 175.9375 39.9375 C177.29165633 39.91600546 178.64756083 39.92851801 180 40 C180.33 40.33 180.66 40.66 181 41 C182.155 41.165 183.31 41.33 184.5 41.5 C188 42 188 42 189 43 C190.49496842 43.20699563 191.9966592 43.36679259 193.5 43.5 C197.88888889 43.88888889 197.88888889 43.88888889 199 45 C200.155 45.165 201.31 45.33 202.5 45.5 C206 46 206 46 207 47 C208.155 47.165 209.31 47.33 210.5 47.5 C214 48 214 48 215 49 C216.32821618 49.1867804 217.66354224 49.32380828 219 49.4375 C223.77118583 49.91232106 228.34623202 50.866813 233 52 C233 52.66 233 53.32 233 54 C234.299375 53.979375 235.59875 53.95875 236.9375 53.9375 C238.29165633 53.91600546 239.64756083 53.92851801 241 54 C241.33 54.33 241.66 54.66 242 55 C243.32781878 55.20604085 244.66295895 55.3662959 246 55.5 C249.88888889 55.88888889 249.88888889 55.88888889 251 57 C252.155 57.165 253.31 57.33 254.5 57.5 C258 58 258 58 259 59 C260.32781878 59.20604085 261.66295895 59.3662959 263 59.5 C266.88888889 59.88888889 266.88888889 59.88888889 268 61 C269.49496842 61.20699563 270.9966592 61.36679259 272.5 61.5 C276.88888889 61.88888889 276.88888889 61.88888889 278 63 C279.5778125 63.185625 279.5778125 63.185625 281.1875 63.375 C285.11376235 64.01864957 287.65342311 64.87036016 291 67 C293.25090798 70.30815264 294.70282945 73.60239565 296 77.375 C297.48691446 81.67466099 299.19471228 85.82385823 301 90 C301.986909 92.43437553 302.96592453 94.87196426 303.9375 97.3125 C304.42089844 98.52550781 304.90429688 99.73851563 305.40234375 100.98828125 C305.65612793 101.62660889 305.90991211 102.26493652 306.17138672 102.92260742 C306.75877669 104.39523597 307.34926016 105.86663233 307.94189453 107.3371582 C310.73028526 114.26454512 313.38086115 121.23952578 316 128.23242188 C317.89321203 133.24277794 319.90631954 138.15144257 322.16796875 143.00756836 C322.99487301 144.9877226 323.53606435 146.90789622 324 149 C328.33755585 150.06625625 332.55705706 150.14474952 336.99609375 150.1328125 C337.79761368 150.13399582 338.59913361 150.13517914 339.42494202 150.13639832 C342.09582514 150.13800167 344.76662532 150.13152023 347.4375 150.125 C349.31640625 150.12522634 351.1953125 150.12547088 353.07421875 150.12573242 C364.3049988 150.11084771 375.52654286 149.94325057 386.75390625 149.66796875 C387.98265976 149.63920654 389.21141327 149.61044434 390.47740173 149.58081055 C396.55659812 149.4377052 402.63461125 149.27833526 408.71264648 149.09228516 C410.94383243 149.03617514 413.17503306 148.98064511 415.40625 148.92578125 C416.95023216 148.86972969 416.95023216 148.86972969 418.52540588 148.81254578 C419.94078896 148.78218987 419.94078896 148.78218987 421.38476562 148.7512207 C422.61918396 148.71458061 422.61918396 148.71458061 423.87854004 148.67720032 C426.54567808 149.08302995 427.36324906 149.89817045 429 152 C430.02734375 154.4609375 430.02734375 154.4609375 430.9375 157.375 C431.27394531 158.43589844 431.61039063 159.49679688 431.95703125 160.58984375 C432.30121094 161.71519531 432.64539063 162.84054688 433 164 C433.35449219 165.15628906 433.70898438 166.31257812 434.07421875 167.50390625 C434.74549804 169.69741739 435.41140685 171.89258401 436.0703125 174.08984375 C436.9347276 176.93927399 436.9347276 176.93927399 437.9921875 179.37890625 C439.06609207 182.17189061 439.78300987 184.98741859 440.48193359 187.89404297 C441.32308471 191.31334999 442.3157408 194.6858293 443.3125 198.0625 C443.5276123 198.79202881 443.74272461 199.52155762 443.96435547 200.27319336 C446.52300983 208.86614696 449.23259467 217.42846921 452.45703125 225.796875 C454.24286801 230.52024261 455.64966728 235.34195352 457.0625 240.1875 C458.88112 246.56067577 458.88112 246.56067577 461.14453125 252.78125 C462.12738659 255.33039079 462.40755785 257.59447315 462.625 260.3125 C462.69976563 261.19550781 462.77453125 262.07851563 462.8515625 262.98828125 C462.90054688 263.65214844 462.94953125 264.31601562 463 265 C463.66 265 464.32 265 465 265 C467.7039577 272.25152293 468.99322726 279.33668281 470 287 C470.66 287 471.32 287 472 287 C474.08242138 293.6483863 474.08242138 293.6483863 474.93041992 296.37646484 C476.00749823 299.8403243 477.09710989 303.29753476 478.22265625 306.74609375 C478.58230469 307.86113281 478.94195313 308.97617187 479.3125 310.125 C479.63863281 311.11757813 479.96476563 312.11015625 480.30078125 313.1328125 C481.07853857 316.32205202 481.48321307 318.73944077 481 322 C477.48427349 324.6539131 474.83721783 325.38643044 470.48046875 325.4765625 C468.7775769 325.5218811 468.7775769 325.5218811 467.0402832 325.56811523 C465.76886475 325.58688721 464.49744629 325.60565918 463.1875 325.625 C461.78146788 325.6564819 460.37546228 325.68916547 458.96948242 325.72290039 C454.89128741 325.81579947 450.8129471 325.88796619 446.73425293 325.95501709 C443.90645972 326.00153889 441.07871785 326.05052444 438.25097656 326.10009766 C421.40948403 326.39454754 421.40948403 326.39454754 415.35653687 326.49465942 C392.23381645 326.87713269 369.11762608 327.45105902 346 328.0625 C345.12505009 328.08562634 344.25010017 328.10875267 343.34863663 328.1325798 C332.56565328 328.41786801 321.78277587 328.70697574 311 329 C309.83470357 337.86049851 308.74535897 346.677348 308.25390625 355.60546875 C308.13946157 357.49813664 308.02487298 359.39079584 307.91015625 361.28344727 C307.85359863 362.24646759 307.79704102 363.20948792 307.73876953 364.20169067 C306.93265808 377.85631992 306.09175048 391.47420805 304.5 405.0625 C302.62583951 421.24831985 301.91983248 437.5191878 301.08984375 453.78540039 C300.55200907 464.18709246 299.94609335 474.56621028 298.97265625 484.9375 C298.89123886 485.81390137 298.80982147 486.69030273 298.72593689 487.59326172 C298.39437929 490.93755939 298.06831983 493.79504052 297 497 C296.7846436 498.84371272 296.61170319 500.69253981 296.46484375 502.54296875 C296.37783203 503.61611328 296.29082031 504.68925781 296.20117188 505.79492188 C296.11416016 506.91447266 296.02714844 508.03402344 295.9375 509.1875 C295.84662109 510.31865234 295.75574219 511.44980469 295.66210938 512.61523438 C295.43806386 515.40990736 295.21749856 518.20481111 295 521 C291.33102656 520.14985997 288.16722841 518.78679529 284.75 517.1875 C283.60015625 516.64996094 282.4503125 516.11242187 281.265625 515.55859375 C278.66172826 514.31582485 276.07451998 513.05199961 273.5 511.75 C270.20415347 510.04152274 270.20415347 510.04152274 267.5 509 C264.70162416 507.88064967 262.06626873 506.50786125 259.3828125 505.140625 C255.60585107 503.33263691 251.7191548 501.79992427 247.83203125 500.24609375 C245 499 245 499 242.38671875 497.41015625 C240.16497914 496.0974754 238.48348596 495.55265015 236 495 C235.87496094 496.27488281 235.74992187 497.54976562 235.62109375 498.86328125 C235.04615723 504.03366824 234.08369873 509.08952872 233.0625 514.1875 C231.44686428 522.43440007 230.06506686 530.66164761 229 539 C228.34 539 227.68 539 227 539 C226.87882812 540.03898438 226.75765625 541.07796875 226.6328125 542.1484375 C226.46374704 543.55731633 226.2944644 544.9661691 226.125 546.375 C226.04636719 547.05433594 225.96773438 547.73367188 225.88671875 548.43359375 C225.20779206 554.02168264 224.15719996 559.49300483 223 565 C222.81888672 565.8760791 222.63777344 566.7521582 222.45117188 567.65478516 C221.86682907 570.47894023 221.27765394 573.30205382 220.6875 576.125 C220.24998759 578.22135158 219.812488 580.31770583 219.375 582.4140625 C219.15070313 583.48817383 218.92640625 584.56228516 218.6953125 585.66894531 C217.52430329 591.27893468 216.35603902 596.88949568 215.1875 602.5 C214.76433536 604.53125259 214.34115945 606.56250284 213.91796875 608.59375 C213.74031982 609.44646484 213.5626709 610.29917969 213.37963867 611.17773438 C213.25435791 611.77908203 213.12907715 612.38042969 213 613 C212.01 613 211.02 613 210 613 C208.7109375 611.26953125 208.7109375 611.26953125 207.375 608.8125 C202.85153437 600.89086437 197.54918516 593.5069645 192.19921875 586.12890625 C191.73870117 585.49178711 191.27818359 584.85466797 190.80371094 584.19824219 C189.90655181 582.9599189 189.00498642 581.72477366 188.09863281 580.49316406 C185 576.22114285 185 576.22114285 185 574 C184.34 574 183.68 574 183 574 C177.62870159 564.58997722 177.62870159 564.58997722 176 560 C175.34 560 174.68 560 174 560 C172.5625 558.20703125 172.5625 558.20703125 171 555.8125 C170.484375 555.03519531 169.96875 554.25789062 169.4375 553.45703125 C168.01759573 551.0300753 166.97310029 548.63392049 166 546 C165.34 546 164.68 546 164 546 C162.84375 544.3046875 162.84375 544.3046875 161.5 541.875 C158.84798181 537.29602277 155.95874068 532.98043944 152.875 528.6875 C152.45541016 528.10145996 152.03582031 527.51541992 151.60351562 526.91162109 C149.73863739 524.32863217 147.83787047 521.80054569 145.828125 519.328125 C144.21346213 517.27184493 143.04362245 515.38594227 141.875 513.0625 C138.92205198 507.60045198 135.2830294 502.66781945 131.63671875 497.66015625 C129.86217254 495.21876321 128.13980585 492.75161628 126.45703125 490.24609375 C126.05387695 489.64829102 125.65072266 489.05048828 125.23535156 488.43457031 C124.12198617 486.77611013 123.01586259 485.11279507 121.91015625 483.44921875 C120.16697962 480.74810521 120.16697962 480.74810521 117 480 C116.88527344 480.69351562 116.77054687 481.38703125 116.65234375 482.1015625 C115.91955795 485.35741316 114.80232138 488.27728604 113.5625 491.375 C111.79133427 495.88481793 110.20018793 500.30835627 109 505 C108.34 505 107.68 505 107 505 C106.85304688 505.81791016 106.85304688 505.81791016 106.703125 506.65234375 C105.71176281 511.65188585 104.27717873 516.05794616 102.09765625 520.6640625 C99.37380989 526.46071774 97.13472943 532.32226682 95.0625 538.375 C93.21992174 543.67909881 91.30037704 548.86791209 88.93359375 553.96484375 C86.42718285 559.42860977 84.28010068 565.03026039 82.4375 570.75 C81.60848182 573.32219695 80.75938937 575.46117038 79.5 577.875 C78.12535115 580.73885177 77.34799685 583.25118524 76.5625 586.3125 C75.2039332 591.52267372 73.27157411 596.13561908 71 601 C66.62171741 610.87284119 62.71274597 620.8623603 59 631 C58.34 631 57.68 631 57 631 C55.9923048 629.2335343 54.99408286 627.46166177 54 625.6875 C53.443125 624.70136719 52.88625 623.71523438 52.3125 622.69921875 C51 620 51 620 51 617 C50.34 617 49.68 617 49 617 C48.525625 615.865625 48.05125 614.73125 47.5625 613.5625 C45.49658068 608.90505645 43.15036032 604.42789053 40.75 599.9375 C37.59528781 594.02521371 34.46934486 588.10141766 31.4375 582.125 C31.09106445 581.45331787 30.74462891 580.78163574 30.38769531 580.08959961 C28.9290736 577.19363086 28 575.28929363 28 572 C27.34 572 26.68 572 26 572 C25.16180842 570.37750059 24.3295884 568.75191503 23.5 567.125 C23.0359375 566.22007812 22.571875 565.31515625 22.09375 564.3828125 C21 562 21 562 21 560 C20.34 560 19.68 560 19 560 C18.37738281 558.51113281 18.37738281 558.51113281 17.7421875 556.9921875 C16.01359941 552.96151726 14.09646786 549.04149841 12.125 545.125 C11.77566406 544.42826172 11.42632812 543.73152344 11.06640625 543.01367188 C8.50613244 537.93563803 5.8455355 532.92496529 3 528 C-0.13789889 527.67622814 -0.13789889 527.67622814 -2.37255859 530.01611328 C-3.74661865 531.40419189 -3.74661865 531.40419189 -5.1484375 532.8203125 C-5.64284332 533.31659149 -6.13724915 533.81287048 -6.64663696 534.32418823 C-7.69405061 535.37833049 -8.737857 536.43606732 -9.77832031 537.49707031 C-11.35507335 539.10468335 -12.94196503 540.70165986 -14.53125 542.296875 C-20.32690983 548.11187479 -20.32690983 548.11187479 -25.65087891 554.35107422 C-26.81369385 555.66229248 -26.81369385 555.66229248 -28 557 C-28.99 557 -29.98 557 -31 557 C-31 536.54 -31 516.08 -31 495 C-31.66 495 -32.32 495 -33 495 C-33.02505615 493.83130371 -33.0501123 492.66260742 -33.07592773 491.45849609 C-33.17123645 487.05623354 -33.27113765 482.6540844 -33.37231445 478.25195312 C-33.41520294 476.35907677 -33.45690246 474.46617304 -33.49731445 472.57324219 C-33.70643781 462.81415227 -33.99267501 453.10386031 -34.76586914 443.37011719 C-35.26261363 436.21989725 -35.37001695 429.04753477 -35.55224609 421.88354492 C-35.75645005 414.01981909 -36.10695378 406.20069782 -36.75927734 398.36010742 C-37.22839621 391.81195024 -37.37446992 385.24859842 -37.5625 378.6875 C-37.60584415 377.25324685 -37.64946251 375.81900196 -37.69335938 374.38476562 C-37.79872057 370.92326614 -37.90041812 367.46167116 -38 364 C-38.75845215 363.71390869 -39.5169043 363.42781738 -40.29833984 363.13305664 C-43.74272565 361.68850626 -46.61568637 359.61203827 -49.625 357.4375 C-54.0343775 354.22115276 -54.0343775 354.22115276 -59 352 C-59 351.34 -59 350.68 -59 350 C-59.50789062 349.7628125 -60.01578125 349.525625 -60.5390625 349.28125 C-63.92104641 347.52047108 -67.1423211 345.51719163 -70.375 343.5 C-71.0774585 343.06220215 -71.77991699 342.6244043 -72.50366211 342.17333984 C-77.89012553 338.77932906 -83.09999312 335.18588683 -88.21826172 331.40039062 C-92.01142008 328.61433725 -95.88798778 326.27119969 -100 324 C-100 323.34 -100 322.68 -100 322 C-101.98 321.34 -103.96 320.68 -106 320 C-106 319.34 -106 318.68 -106 318 C-106.71542969 317.73832031 -107.43085937 317.47664063 -108.16796875 317.20703125 C-111.12130605 315.94829852 -113.62579494 314.44105135 -116.3125 312.6875 C-119.7389696 310.45890188 -123.1794264 308.28485361 -126.6875 306.1875 C-128.3271875 305.1046875 -128.3271875 305.1046875 -130 304 C-130 303.34 -130 302.68 -130 302 C-130.73605469 301.731875 -131.47210938 301.46375 -132.23046875 301.1875 C-134.9314078 300.02941048 -136.956452 298.74088094 -139.3125 297 C-143.78976603 293.78950534 -148.38102334 290.83615284 -153.0625 287.9375 C-162.94794892 281.79508514 -162.94794892 281.79508514 -166.5 279.5 C-167.1909375 279.0565625 -167.881875 278.613125 -168.59375 278.15625 C-169.0578125 277.7746875 -169.521875 277.393125 -170 277 C-170 276.34 -170 275.68 -170 275 C-170.87591797 274.83757812 -170.87591797 274.83757812 -171.76953125 274.671875 C-174.27667863 273.91665723 -175.66379364 272.89611754 -177.6875 271.25 C-180.4867548 269.071652 -183.24490653 267.23003652 -186.375 265.5625 C-190.74129699 263.22071442 -194.75538285 260.527034 -198.7578125 257.609375 C-201.09122815 255.87969888 -201.09122815 255.87969888 -204.125 254.1875 C-206.70665693 251.17556692 -206.50146137 249.16198037 -206.30859375 245.28125 C-205.64023547 238.17465562 -204.86444396 231.08535317 -204 224 C-203.34 224 -202.68 224 -202 224 C-202.01740234 222.93458984 -202.01740234 222.93458984 -202.03515625 221.84765625 C-202.04417969 220.92855469 -202.05320313 220.00945312 -202.0625 219.0625 C-202.07410156 218.14597656 -202.08570313 217.22945312 -202.09765625 216.28515625 C-202 214 -202 214 -201 213 C-200.70035594 210.93221142 -200.46045389 208.8557051 -200.24609375 206.77734375 C-200.11396484 205.51728516 -199.98183594 204.25722656 -199.84570312 202.95898438 C-199.7095409 201.61849918 -199.57347444 200.27800426 -199.4375 198.9375 C-199.29792894 197.59305707 -199.15796014 196.24865537 -199.01757812 194.90429688 C-198.67445862 191.6032506 -198.33545333 188.30183269 -198 185 C-197.34 185 -196.68 185 -196 185 C-196.02320313 184.45214844 -196.04640625 183.90429688 -196.0703125 183.33984375 C-196.27813109 174.21066976 -194.7960174 165.35450553 -193.45703125 156.34765625 C-193.28558594 155.18105469 -193.11414063 154.01445312 -192.9375 152.8125 C-192.76992187 151.67683594 -192.60234375 150.54117188 -192.4296875 149.37109375 C-191.88487133 145.09676328 -191.62417562 140.8273613 -191.44140625 136.5234375 C-190.89547231 133.40243464 -190.36301899 132.13616917 -188 130 C-185.32725499 129.27133451 -182.90745787 128.75969032 -180.1875 128.375 C-175.24987802 127.61046498 -170.73488686 126.66125465 -166 125 C-163.42000907 124.28483515 -160.84484544 123.5928079 -158.25 122.9375 C-157.54625244 122.75904541 -156.84250488 122.58059082 -156.11743164 122.39672852 C-151.43555655 121.24947854 -146.90679264 120.606235 -142.09375 120.27734375 C-138.81991066 119.8436822 -136.0111812 118.31396998 -133 117 C-131.52697414 116.78574169 -130.04605811 116.62152012 -128.5625 116.5 C-124.86596101 116.19092483 -121.96112057 115.25803176 -118.51953125 113.828125 C-114.26685638 112.43034659 -109.86383394 111.76004008 -105.45874023 111.00244141 C-101.61532274 110.37695811 -101.61532274 110.37695811 -98 109 C-96.45976004 108.93049459 -94.91665012 108.91547643 -93.375 108.9375 C-92.55773437 108.94652344 -91.74046875 108.95554687 -90.8984375 108.96484375 C-90.27195312 108.97644531 -89.64546875 108.98804688 -89 109 C-89 108.34 -89 107.68 -89 107 C-83.42932723 105.40837921 -78.78898419 104.79325056 -73 105 C-73 104.34 -73 103.68 -73 103 C-72.22398437 102.82984375 -71.44796875 102.6596875 -70.6484375 102.484375 C-64.61573654 101.13097669 -58.67536743 99.64357372 -52.75 97.875 C-47.44723852 96.32094686 -42.50662151 95.379767 -37 95 C-35.68 89.72 -34.36 84.44 -33 79 C-32.34 79 -31.68 79 -31 79 C-30.855625 77.7625 -30.71125 76.525 -30.5625 75.25 C-30.21311498 72.43495501 -29.79620634 69.7298503 -29 67 C-28.34 67 -27.68 67 -27 67 C-26.90589844 65.89914063 -26.81179687 64.79828125 -26.71484375 63.6640625 C-26.04625317 58.32708813 -24.3272652 53.43567089 -22.5625 48.375 C-22.24990234 47.45976563 -21.93730469 46.54453125 -21.61523438 45.6015625 C-21.0138725 43.84197512 -20.40984301 42.08329645 -19.80273438 40.32568359 C-17.68294475 34.22725108 -17.68294475 34.22725108 -16 28 C-15.34 28 -14.68 28 -14 28 C-13.67 25.36 -13.34 22.72 -13 20 C-12.34 20 -11.68 20 -11 20 C-10.96261719 19.31035156 -10.92523438 18.62070312 -10.88671875 17.91015625 C-10.45106471 11.68286616 -9.76113936 5.68081305 -7 0 C-4.26180121 -1.36909939 -2.94943563 -0.73735891 0 0 Z " fill="red" transform="translate(228,23)"/>
<path d="M0 0 C2.625 -0.1875 2.625 -0.1875 5 0 C7.6830203 5.68581917 9.15010381 11.31071308 10.5 17.4375 C12.15790196 24.96596633 12.15790196 24.96596633 14.56640625 32.27734375 C15.83911597 35.58222756 16.71113124 38.66910886 17.4375 42.125 C18.46501597 46.78916937 19.64791545 51.35686376 21 55.9375 C22.40316502 60.72319971 23.56641039 65.48842425 24.5625 70.375 C25.45881439 74.73544837 26.50863921 78.73194246 28.20898438 82.83642578 C29.1328058 85.36324845 29.77335746 87.89367798 30.41015625 90.5078125 C30.80195068 92.10375244 30.80195068 92.10375244 31.20166016 93.73193359 C31.4651123 94.81039551 31.72856445 95.88885742 32 97 C32.48699535 98.95344603 32.97524382 100.90658014 33.46484375 102.859375 C33.70557617 103.82246582 33.94630859 104.78555664 34.19433594 105.77783203 C34.70379737 107.81534301 35.21357929 109.85277388 35.72363281 111.89013672 C36.89182954 116.55785711 38.05792189 121.22597755 39.20703125 125.8984375 C39.38564697 126.62192383 39.5642627 127.34541016 39.74829102 128.09082031 C40.21408986 129.9794023 40.67745908 131.86858308 41.140625 133.7578125 C41.97176567 136.89347957 42.96745769 139.9256635 44 143 C44.82468163 145.78258462 45.60221226 148.57761112 46.375 151.375 C46.59196533 152.15939453 46.80893066 152.94378906 47.0324707 153.75195312 C52.31518857 172.9871587 52.31518857 172.9871587 53.9375 182 C54.74852095 186.29912875 56.03154938 190.40602828 57.375 194.5625 C59.39651631 200.81996146 61.03020523 207.08590256 62.47998047 213.49780273 C64.1945004 221.01445679 66.29703676 228.41028515 68.39306641 235.82763672 C69.67841214 240.42820242 70.88729229 245.04926565 72.10546875 249.66796875 C72.73304906 252.00563688 73.40359091 254.33199263 74.10546875 256.6484375 C75.1821283 260.68238463 75.14538598 263.85649961 75 268 C77.31 268.33 79.62 268.66 82 269 C82.23456909 268.19187866 82.23456909 268.19187866 82.47387695 267.36743164 C84.36067439 261.26602094 87.0029589 255.95706838 90.1875 250.4375 C90.65091797 249.61958984 91.11433594 248.80167969 91.59179688 247.95898438 C92.72088327 245.96853311 93.85695355 243.98245616 95 242 C95.66 242 96.32 242 97 242 C97.13728516 241.23429687 97.13728516 241.23429687 97.27734375 240.453125 C98.29020798 237.01486157 99.93220432 233.92665535 101.5625 230.75 C101.89185547 230.1003125 102.22121094 229.450625 102.56054688 228.78125 C103.37007565 227.18565706 104.18455042 225.59257517 105 224 C105.66 224 106.32 224 107 224 C107.12375 223.05125 107.2475 222.1025 107.375 221.125 C108 218 108 218 110 216 C114 216 114 216 115.4921875 217.3984375 C115.94851562 218.05070313 116.40484375 218.70296875 116.875 219.375 C117.38804687 220.10460937 117.90109375 220.83421875 118.4296875 221.5859375 C120.55704444 224.85635191 122.53401051 228.20564486 124.5078125 231.5703125 C126.29791201 234.48508186 128.31503403 237.14704424 130.3984375 239.85546875 C133.33145782 243.7828545 135.9772433 247.90513552 138.67480469 251.99609375 C141.47826659 256.23537439 144.30425362 260.45971027 147.125 264.6875 C148.29434505 266.44135677 149.46361771 268.1952618 150.6328125 269.94921875 C151.19838867 270.79726074 151.76396484 271.64530273 152.34667969 272.51904297 C153.41104342 274.11621726 154.47428458 275.71414051 155.53613281 277.31298828 C159.1439176 282.74124753 162.81009531 288.12728841 166.5 293.5 C170.71401625 299.63584789 174.88642574 305.79628531 179 312 C180.65 311.67 182.3 311.34 184 311 C185.58321067 305.52225234 185.58321067 305.52225234 187 300 C187.66 300 188.32 300 189 300 C189.10441406 299.1440625 189.20882813 298.288125 189.31640625 297.40625 C190.05411231 293.73036611 191.29873069 290.86568758 192.9375 287.5 C194.93111627 283.38541114 196.63846075 279.36744958 198 275 C198.66 275 199.32 275 200 275 C200.103125 274.360625 200.20625 273.72125 200.3125 273.0625 C201.23903073 268.93522674 202.61660629 264.99357051 204 261 C204.66 261 205.32 261 206 261 C206.103125 259.989375 206.20625 258.97875 206.3125 257.9375 C207.34335971 252.03348528 209.8565118 247.27627787 212.5625 242 C214.57416323 238.03726581 215.96795755 234.3158139 217 230 C217.66 230 218.32 230 219 230 C219.12375 229.071875 219.2475 228.14375 219.375 227.1875 C220 224 220 224 222 221 C222.70812814 218.67891331 223.38024152 216.34622853 224 214 C224.66 214 225.32 214 226 214 C226 212.68 226 211.36 226 210 C226.66 210 227.32 210 228 210 C228.66 206.7 229.32 203.4 230 200 C230.66 200 231.32 200 232 200 C232.33 197.36 232.66 194.72 233 192 C233.66 192 234.32 192 235 192 C235.66 189.36 236.32 186.72 237 184 C237.66 184 238.32 184 239 184 C239.0825 183.030625 239.165 182.06125 239.25 181.0625 C239.80424624 177.12735167 241.26274811 173.91827121 242.953125 170.34765625 C244.33199503 167.25548876 245.31773122 164.08733176 246.2890625 160.84765625 C247 159 247 159 249 157 C251.3671875 156.95703125 251.3671875 156.95703125 254 158 C255.62302362 160.2442909 256.869612 162.25363513 258.125 164.6875 C258.45886719 165.30044922 258.79273438 165.91339844 259.13671875 166.54492188 C260.64837998 169.34001312 262.08095174 172.16445985 263.484375 175.015625 C265.54701068 179.0771035 267.86994009 182.9729827 270.21484375 186.87695312 C272.17869873 190.23463027 273.51654951 193.12507107 274 197 C274.66 197 275.32 197 276 197 C276.29132813 197.59425781 276.58265625 198.18851563 276.8828125 198.80078125 C280.09436426 205.29457931 283.49241182 211.6619936 287 218 C287.37850098 218.68723145 287.75700195 219.37446289 288.14697266 220.08251953 C293.95755105 230.70686201 293.95755105 230.70686201 300.125 241.125 C302.58853405 245.15060732 304.67982373 249.3257422 306.75 253.5625 C309.62888125 259.45328473 312.75590211 265.12556604 316.125 270.75 C327 288.91642857 327 288.91642857 327 293 C327.66 293 328.32 293 329 293 C329.81791016 294.56234375 329.81791016 294.56234375 330.65234375 296.15625 C336.43384718 307.16050753 342.23453665 318.19506116 348.71484375 328.80859375 C349.94508043 330.90635295 350.55970813 332.62242391 351 335 C352.98 335.33 354.96 335.66 357 336 C357.04898437 334.96101563 357.09796875 333.92203125 357.1484375 332.8515625 C357.22357747 331.44268797 357.2991202 330.03383488 357.375 328.625 C357.4059375 327.94566406 357.436875 327.26632812 357.46875 326.56640625 C357.68548408 322.70131516 358.15173668 319.03602904 358.96875 315.25 C360.22291094 309.3306799 360.67834964 303.40111883 361.125 297.375 C361.25455078 295.72564453 361.25455078 295.72564453 361.38671875 294.04296875 C361.59650664 291.36234576 361.80083008 288.68142918 362 286 C362.66 286 363.32 286 364 286 C363.98839844 285.26136719 363.97679687 284.52273438 363.96484375 283.76171875 C363.90270423 276.77546152 364.23455014 269.9437237 365 263 C365.66 263 366.32 263 367 263 C366.97679687 262.32839844 366.95359375 261.65679688 366.9296875 260.96484375 C366.78928589 253.19261176 367.27041761 245.55366059 367.9375 237.8125 C368.02435059 236.78439209 368.11120117 235.75628418 368.20068359 234.69702148 C368.87214554 227.25570892 368.87214554 227.25570892 370 225 C370.22133998 223.18963178 370.39161482 221.37287901 370.53515625 219.5546875 C370.62216797 218.47832031 370.70917969 217.40195312 370.79882812 216.29296875 C370.88583984 215.16503906 370.97285156 214.03710938 371.0625 212.875 C371.15337891 211.73933594 371.24425781 210.60367188 371.33789062 209.43359375 C371.56229226 206.62266799 371.78283166 203.81149234 372 201 C372.66 201 373.32 201 374 201 C373.98839844 200.17757812 373.97679687 199.35515625 373.96484375 198.5078125 C373.90898042 191.59672029 374.13305966 184.85811735 375 178 C375.66 178 376.32 178 377 178 C376.98839844 176.73542969 376.97679687 175.47085938 376.96484375 174.16796875 C376.95546434 172.50781398 376.9463643 170.84765761 376.9375 169.1875 C376.92912109 168.35412109 376.92074219 167.52074219 376.91210938 166.66210938 C376.90727539 165.45844727 376.90727539 165.45844727 376.90234375 164.23046875 C376.89448853 163.12288208 376.89448853 163.12288208 376.88647461 161.99291992 C377 160 377 160 378 157 C379.32 157 380.64 157 382 157 C383.37207031 158.43701172 383.37207031 158.43701172 384.578125 160.4296875 C385.23554687 161.49896484 385.23554687 161.49896484 385.90625 162.58984375 C386.3496875 163.34394531 386.793125 164.09804688 387.25 164.875 C387.70890625 165.62136719 388.1678125 166.36773438 388.640625 167.13671875 C392 172.68568638 392 172.68568638 392 175 C392.66 175 393.32 175 394 175 C395.19140625 176.51171875 395.19140625 176.51171875 396.5625 178.6875 C399.09422854 182.61753116 401.70016662 186.47811018 404.375 190.3125 C407.97258784 195.48407959 411.48231745 200.70835981 414.9609375 205.9609375 C416.76474136 208.64936547 418.60207507 211.30824568 420.45922852 213.9597168 C432 230.44549738 432 230.44549738 432 234 C432.66 234 433.32 234 434 234 C435.2265625 235.58203125 435.2265625 235.58203125 436.625 237.8125 C439.63108642 242.48781377 442.85869085 246.95728707 446.16796875 251.421875 C448 254 448 254 449.5703125 256.74609375 C451.34361586 259.54171134 452.88371982 260.07353832 456 261 C457.83402304 255.03331172 459.53889252 249.06921567 461 243 C461.66 243 462.32 243 463 243 C463.103125 242.01 463.20625 241.02 463.3125 240 C463.80579097 236.56751697 464.83131522 233.52013365 466.1171875 230.29296875 C467.15460453 227.59843868 468.04452955 224.87070835 468.9375 222.125 C470.19183864 218.31410856 471.53443934 214.58433808 473.0625 210.875 C475.05987903 206.01181627 476.57939278 201.05822268 478 196 C478.66 196 479.32 196 480 196 C480 194.35 480 192.7 480 191 C480.66 191 481.32 191 482 191 C482.10957031 190.2265625 482.21914063 189.453125 482.33203125 188.65625 C483.28428043 182.40082452 484.50855235 176.80575875 487 171 C489.7241876 164.41836277 492.07308917 157.86097036 494 151 C494.66 151 495.32 151 496 151 C496.33 148.36 496.66 145.72 497 143 C497.66 143 498.32 143 499 143 C499.33 140.36 499.66 137.72 500 135 C500.66 135 501.32 135 502 135 C502.144375 133.7625 502.28875 132.525 502.4375 131.25 C502.78688502 128.43495501 503.20379366 125.7298503 504 123 C504.66 123 505.32 123 506 123 C506.103125 122.030625 506.20625 121.06125 506.3125 120.0625 C506.95237921 115.50915661 508.46113316 111.31551787 510 107 C510.33 106.01 510.66 105.02 511 104 C511.66 104 512.32 104 513 104 C513.0825 103.0925 513.165 102.185 513.25 101.25 C514.39847588 93.17785526 517.70992485 85.40266908 521 78 C523.98873361 71.10965599 526.19109967 64.15214464 528.16796875 56.90625 C529 54 529 54 530 52 C531.32 52 532.64 52 534 52 C534.33 54.97 534.66 57.94 535 61 C535.66 61 536.32 61 537 61 C537.46065537 63.10365953 537.91837622 65.20796168 538.375 67.3125 C538.63023437 68.48425781 538.88546875 69.65601563 539.1484375 70.86328125 C539.80409404 73.94620507 540.35380656 77.03818807 540.88671875 80.14453125 C542.0557163 86.64833741 543.73370998 92.99392654 545.4375 99.375 C547.56771609 107.40110449 549.59523135 115.42469906 551.37133789 123.53759766 C551.75880045 125.92887172 551.75880045 125.92887172 553 127 C553.52040508 129.49794439 553.99479563 131.98815225 554.4375 134.5 C555.26519517 139.08763638 556.10911625 143.6505855 557.1875 148.1875 C557.85004608 151.29637005 558.20327882 153.84917824 558 157 C558.66 157 559.32 157 560 157 C560.67301289 160.24871916 561.3372951 163.49916379 562 166.75 C562.19078125 167.67039062 562.3815625 168.59078125 562.578125 169.5390625 C562.75859375 170.42851563 562.9390625 171.31796875 563.125 172.234375 C563.37636719 173.45979004 563.37636719 173.45979004 563.6328125 174.70996094 C564 177 564 177 564 181 C564.66 181 565.32 181 566 181 C566.25523437 182.48886719 566.25523437 182.48886719 566.515625 184.0078125 C567.90905477 191.90163128 569.57333031 199.55676795 571.9375 207.23046875 C573.49981771 212.77325034 574.72738689 218.38459467 576 224 C576.71654 227.12681098 577.43640124 230.25285555 578.15625 233.37890625 C578.54297916 235.0592424 578.92969777 236.73958097 579.31640625 238.41992188 C579.60862061 239.68920532 579.60862061 239.68920532 579.90673828 240.98413086 C580.30263734 242.70474401 580.6981444 244.4254474 581.09326172 246.14624023 C583.62087481 257.15254222 586.19889174 268.13771807 589.0625 279.0625 C590.09193874 283.1292084 590.76662587 287.24766496 591.4375 291.38671875 C591.91820665 293.99709148 591.91820665 293.99709148 592.95678711 296.32055664 C594.01562488 299.04013178 594.66307585 301.62881828 595.25390625 304.484375 C595.46853516 305.50144531 595.68316406 306.51851562 595.90429688 307.56640625 C596.12150391 308.61699219 596.33871094 309.66757812 596.5625 310.75 C596.99791975 312.84966259 597.43654456 314.94866398 597.87890625 317.046875 C598.0704126 317.97338867 598.26191895 318.89990234 598.45922852 319.85449219 C598.79684824 321.96779576 598.79684824 321.96779576 600 323 C600.5396728 325.24081531 601.0317786 327.49317286 601.5 329.75 C601.7578125 330.98234375 602.015625 332.2146875 602.28125 333.484375 C602.5184375 334.64453125 602.755625 335.8046875 603 337 C603.18046875 337.87398437 603.3609375 338.74796875 603.546875 339.6484375 C603.77117187 340.81246094 603.77117187 340.81246094 604 342 C604.15984375 342.80179688 604.3196875 343.60359375 604.484375 344.4296875 C604.79345604 347.27505117 604.82977915 349.24410137 604 352 C601.39651889 354.32623853 598.77746584 355.88963582 595.69921875 357.52734375 C593.28615056 358.84388023 591.87890352 360.06328407 590 362 C589.34 362 588.68 362 588 362 C588 362.66 588 363.32 588 364 C585.31026751 366.52162421 582.7774949 368.10539715 579.4375 369.6875 C574.58373015 372.01912402 570.52345668 375.2434585 566.265625 378.51171875 C562.93954941 381.06459237 559.5430719 383.50975956 556.125 385.9375 C555.53952393 386.35410889 554.95404785 386.77071777 554.35083008 387.19995117 C552.56794403 388.46765658 550.78401935 389.73389014 549 391 C541.15460077 396.57465185 533.34778267 402.19537178 525.59692383 407.90087891 C520.95324211 411.31434715 516.27075618 414.66912002 511.57055664 418.00415039 C505.48004946 422.34131679 499.4779816 426.79834077 493.48339844 431.2668457 C483.0589798 439 483.0589798 439 480 439 C480 439.66 480 440.32 480 441 C478.26171875 442.48828125 478.26171875 442.48828125 475.6875 444.3125 C474.69234375 445.02019531 473.6971875 445.72789062 472.671875 446.45703125 C469.11453362 448.93496561 465.52564568 451.36609825 461.93896484 453.80126953 C461.11348145 454.36185059 460.28799805 454.92243164 459.4375 455.5 C458.60041504 456.06831543 457.76333008 456.63663086 456.90087891 457.22216797 C452.02301736 460.55407221 447.37305576 464.02211782 442.82421875 467.79296875 C437.94915293 471.60266749 432.8196069 475.05589262 427.7355957 478.57910156 C422.32142023 482.34277901 416.9981631 486.19601316 411.75 490.1875 C405.9540876 494.59279944 400.03766679 498.7630947 394.01220703 502.84741211 C388.41001981 506.66633497 382.99018613 510.70031118 377.58691406 514.79418945 C373.26597778 518.06488329 368.88362148 521.21616035 364.421875 524.29296875 C361.56884118 526.30389742 358.78557234 528.39668078 356 530.5 C352.15424099 533.39674096 348.29486968 536.26662753 344.375 539.0625 C343.18003906 539.91521484 343.18003906 539.91521484 341.9609375 540.78515625 C340 542 340 542 338 542 C337.67 542.99 337.34 543.98 337 545 C335.06640625 546.32421875 335.06640625 546.32421875 332.5625 547.6875 C327.82575495 550.40961237 323.71936707 553.52266033 319.5078125 556.98828125 C316.23785749 559.611376 312.81855645 561.97538637 309.3671875 564.3515625 C307.20603199 565.85652558 305.09743199 567.40797331 303 569 C299.9060003 571.33628549 296.7811425 573.62319633 293.625 575.875 C292.79226563 576.47054687 291.95953125 577.06609375 291.1015625 577.6796875 C289 579 289 579 287 579 C286.67 579.99 286.34 580.98 286 582 C278.71203992 581.82816183 273.92192636 578.1036218 268.0625 574.0625 C267.09248047 573.41603516 266.12246094 572.76957031 265.12304688 572.10351562 C259.89252334 568.55883289 259.89252334 568.55883289 258 567 C258 566.34 258 565.68 258 565 C256.02 564.34 254.04 563.68 252 563 C252 562.34 252 561.68 252 561 C251.32710938 560.7628125 250.65421875 560.525625 249.9609375 560.28125 C246.27283364 558.68534226 243.01063537 556.65214117 239.625 554.5 C238.91947998 554.05495117 238.21395996 553.60990234 237.48706055 553.15136719 C230.95905567 549.0136837 224.52800456 544.73732922 218.11669922 540.421875 C214.04403286 537.68609543 209.9583216 534.96983812 205.875 532.25 C200.30200776 528.53654809 194.73061142 524.82076179 189.1640625 521.09765625 C187.7411792 520.14681152 187.7411792 520.14681152 186.28955078 519.17675781 C184.47218481 517.96221146 182.65542225 516.74676156 180.83935547 515.53027344 C176.94065175 512.92605225 173.03134822 510.39533875 169 508 C165.85564808 505.9419559 162.75118258 503.83491521 159.67578125 501.67578125 C159.12212891 501.28712891 158.56847656 500.89847656 157.99804688 500.49804688 C156.86099203 499.69828756 155.72560883 498.89614701 154.59179688 498.09179688 C152.06546224 496.3236588 149.9445898 494.98152993 147 494 C147 493.34 147 492.68 147 492 C145.90945312 491.59587891 145.90945312 491.59587891 144.796875 491.18359375 C142.04907048 490.02076586 139.74732372 488.68894172 137.25 487.0625 C136.29609375 486.44375 135.3421875 485.825 134.359375 485.1875 C133.83021484 484.84203125 133.30105469 484.4965625 132.75585938 484.140625 C130.8073973 482.87488323 128.84959784 481.62440941 126.890625 480.375 C120.60404286 476.35398635 114.354712 472.34639659 108.375 467.875 C104.45798033 464.9585234 100.40643391 462.40307807 96.1953125 459.94140625 C87.76253435 454.94357747 79.63081804 449.53330584 71.5 444.0625 C70.1056929 443.1279207 68.71116196 442.19367528 67.31640625 441.25976562 C64.56922173 439.41975144 61.8232246 437.57798629 59.078125 435.73486328 C52.72924995 431.47418247 46.36401966 427.23800951 40 423 C39.01 422.34 38.02 421.68 37 421 C37 420.34 37 419.68 37 419 C36.32066406 418.92910156 35.64132813 418.85820313 34.94140625 418.78515625 C31.07818784 417.75393859 28.17334754 415.69577396 24.9375 413.4375 C23.59513914 412.52070585 22.25269018 411.6040407 20.91015625 410.6875 C20.24773926 410.23117187 19.58532227 409.77484375 18.90283203 409.3046875 C16.2476181 407.48412511 13.56134499 405.71170388 10.875 403.9375 C5.50047117 400.35932925 0.19909867 396.68338383 -5.08984375 392.98046875 C-7.68262575 391.21598489 -10.30003314 389.59302129 -13 388 C-21.2438633 382.95739976 -29.417296 377.79701247 -37.5 372.5 C-38.15274902 372.07904053 -38.80549805 371.65808105 -39.47802734 371.22436523 C-41.02193647 370.20282666 -42.51694182 369.10803198 -44 368 C-44 367.34 -44 366.68 -44 366 C-44.88429687 365.74605469 -45.76859375 365.49210937 -46.6796875 365.23046875 C-50.07072261 363.97379103 -52.28446052 362.52325626 -55.125 360.3125 C-59.02554277 357.37780592 -62.94226311 354.78474888 -67.1875 352.375 C-69.1264856 351.25256244 -71.06408159 350.12771946 -73 349 C-73.83660156 348.52046875 -74.67320313 348.0409375 -75.53515625 347.546875 C-80.71079109 344.22424522 -80.71079109 344.22424522 -81.51953125 340.80078125 C-81.56220026 338.4539857 -81.37862953 336.31431982 -81 334 C-80.835 332.989375 -80.67 331.97875 -80.5 330.9375 C-80.335 330.298125 -80.17 329.65875 -80 329 C-79.34 329 -78.68 329 -78 329 C-77.94392578 328.01773438 -77.94392578 328.01773438 -77.88671875 327.015625 C-77.3638155 319.75649756 -75.94401344 313.00578429 -74 306 C-73.34 306 -72.68 306 -72 306 C-71.93941406 305.05898438 -71.87882812 304.11796875 -71.81640625 303.1484375 C-71.73261719 301.90320313 -71.64882812 300.65796875 -71.5625 299.375 C-71.48128906 298.14523437 -71.40007812 296.91546875 -71.31640625 295.6484375 C-71.03336056 292.38467612 -70.58961047 289.22056141 -70 286 C-69.34 286 -68.68 286 -68 286 C-67.67 282.37 -67.34 278.74 -67 275 C-66.34 275 -65.68 275 -65 275 C-65.04125 274.071875 -65.0825 273.14375 -65.125 272.1875 C-65.1462373 267.0268365 -64.02043018 262.03837402 -63 257 C-62.34 257 -61.68 257 -61 257 C-60.67 253.04 -60.34 249.08 -60 245 C-59.34 245 -58.68 245 -58 245 C-58.04125 243.865625 -58.0825 242.73125 -58.125 241.5625 C-58.13334549 236.88902634 -57.34120542 232.47394802 -56 228 C-55.67 227.67 -55.34 227.34 -55 227 C-54.60333773 224.81980521 -54.25684763 222.6303537 -53.9375 220.4375 C-53.67259766 218.64119141 -53.67259766 218.64119141 -53.40234375 216.80859375 C-53.26957031 215.88175781 -53.13679688 214.95492187 -53 214 C-52.34 214 -51.68 214 -51 214 C-50.67 210.37 -50.34 206.74 -50 203 C-49.34 203 -48.68 203 -48 203 C-47.96261719 202.20078125 -47.92523438 201.4015625 -47.88671875 200.578125 C-47.41793851 192.74673753 -46.15966453 185.53845168 -44 178 C-43.34 178 -42.68 178 -42 178 C-41.90912109 176.67935547 -41.90912109 176.67935547 -41.81640625 175.33203125 C-41.73261719 174.17058594 -41.64882812 173.00914062 -41.5625 171.8125 C-41.48128906 170.66394531 -41.40007812 169.51539063 -41.31640625 168.33203125 C-41.04596188 165.48401829 -40.62478253 162.78789518 -40 160 C-39.34 160 -38.68 160 -38 160 C-37.505 153.565 -37.505 153.565 -37 147 C-36.34 147 -35.68 147 -35 147 C-34.67 143.04 -34.34 139.08 -34 135 C-33.34 135 -32.68 135 -32 135 C-31.67 131.04 -31.34 127.08 -31 123 C-30.34 123 -29.68 123 -29 123 C-28.94392578 121.90945313 -28.94392578 121.90945313 -28.88671875 120.796875 C-28.45676922 114.22117638 -27.46896056 108.14232683 -25.71875 101.7890625 C-24.96772248 98.87474919 -24.45610218 95.97343537 -24 93 C-23.34 93 -22.68 93 -22 93 C-21.90912109 91.93072266 -21.90912109 91.93072266 -21.81640625 90.83984375 C-21.12935622 82.9863334 -20.27274444 75.57581481 -18 68 C-15.75781207 60.39343771 -14.16376185 52.845124 -13 45 C-12.34 45 -11.68 45 -11 45 C-10.505 40.05 -10.505 40.05 -10 35 C-9.34 35 -8.68 35 -8 35 C-8.020625 33.80375 -8.04125 32.6075 -8.0625 31.375 C-8.06882571 27.81995131 -7.69888875 24.49444376 -7 21 C-6.34 21 -5.68 21 -5 21 C-4.67 17.04 -4.34 13.08 -4 9 C-3.34 9 -2.68 9 -2 9 C-2.04125 8.071875 -2.0825 7.14375 -2.125 6.1875 C-2 3 -2 3 0 0 Z " fill="red" transform="translate(110,407)"/>
<path d="M0 0 C0.495 0.495 0.495 0.495 1 1 C4.30079021 1.62549221 7.60386735 2.19359771 10.921875 2.71875 C15.24570852 3.465883 18.30533667 4.50378481 22 7 C23.03125 7.391875 24.0625 7.78375 25.125 8.1875 C37.89098682 13.51591189 48.72705018 24.52644431 56 36 C56.57105469 36.86238281 57.14210938 37.72476563 57.73046875 38.61328125 C60.83792595 43.47744821 62.74778847 47.19913473 63 53 C63.66 53 64.32 53 65 53 C65.33 56.3 65.66 59.6 66 63 C66.66 63 67.32 63 68 63 C69.92362477 75.50356103 68.61255574 86.74586949 66 99 C65.34 99 64.68 99 64 99 C63.89816406 100.01449219 63.79632813 101.02898437 63.69140625 102.07421875 C61.89596739 112.26865975 55.27551358 122.74121173 48 130 C47.34 130 46.68 130 46 130 C46 130.66 46 131.32 46 132 C44.5390625 133.5078125 44.5390625 133.5078125 42.625 135.125 C41.99851562 135.66382813 41.37203125 136.20265625 40.7265625 136.7578125 C39 138 39 138 37 138 C37 138.66 37 139.32 37 140 C36.01 140 35.02 140 34 140 C34 140.66 34 141.32 34 142 C32.68 142 31.36 142 30 142 C30 142.66 30 143.32 30 144 C29.01 144 28.02 144 27 144 C27 144.66 27 145.32 27 146 C26.01 146 25.02 146 24 146 C24 146.66 24 147.32 24 148 C19.05 148.99 19.05 148.99 14 150 C14 150.66 14 151.32 14 152 C11.94921875 152.22786458 9.8984375 152.45572917 7.84765625 152.68359375 C5.98859771 152.81886614 5.98859771 152.81886614 5 154 C0.63186792 154.28370076 -3.7487674 154.23191639 -8.125 154.25 C-9.96191406 154.2809375 -9.96191406 154.2809375 -11.8359375 154.3125 C-18.43712447 154.34107657 -23.14853796 154.05731152 -29 151 C-31.63971431 150.38783926 -31.63971431 150.38783926 -34.125 150.0625 C-38.52213475 149.25163407 -40.60535671 147.9806624 -44 145 C-45.77934554 144.03932048 -47.57276214 143.10451384 -49.375 142.1875 C-53.8132366 139.82838363 -57.06239833 137.34670182 -60.4453125 133.65625 C-61.93641168 132.06774234 -63.46924912 130.77106785 -65.1875 129.4375 C-68.15270215 126.86765814 -70.04242329 124.38811353 -72 121 C-72 120.34 -72 119.68 -72 119 C-72.66 119 -73.32 119 -74 119 C-75.1734316 116.39869373 -76.33892508 113.79431492 -77.5 111.1875 C-78.00080078 110.08051758 -78.00080078 110.08051758 -78.51171875 108.95117188 C-78.82753906 108.23896484 -79.14335937 107.52675781 -79.46875 106.79296875 C-79.76201172 106.1383667 -80.05527344 105.48376465 -80.35742188 104.80932617 C-81 103 -81 103 -81 100 C-81.66 100 -82.32 100 -83 100 C-86.66024787 83.61603333 -87.80846546 68.08310394 -82 52 C-81.67257813 50.99582031 -81.34515625 49.99164063 -81.0078125 48.95703125 C-78.04088349 40.39386027 -73.73015374 33.97081088 -68 27 C-67.53464844 26.38253906 -67.06929687 25.76507813 -66.58984375 25.12890625 C-63.41874462 20.99035315 -59.41087087 17.74584015 -55 15 C-54.34 15 -53.68 15 -53 15 C-53 14.34 -53 13.68 -53 13 C-51.37750059 12.16180842 -49.75191503 11.3295884 -48.125 10.5 C-47.22007812 10.0359375 -46.31515625 9.571875 -45.3828125 9.09375 C-43 8 -43 8 -41 8 C-41 7.34 -41 6.68 -41 6 C-27.13359556 1.0148703 -14.67142783 -0.67545117 0 0 Z " fill="#FDFDFD" transform="translate(293,188)"/>
<path d="M0 0 C2.52239435 1.11567443 4.44231791 2.54792344 6.59375 4.2734375 C7.35816406 4.87929687 8.12257813 5.48515625 8.91015625 6.109375 C12.46747649 9.10984032 12.46747649 9.10984032 14.03125 10.8984375 C14.03125 11.5584375 14.03125 12.2184375 14.03125 12.8984375 C14.69125 12.8984375 15.35125 12.8984375 16.03125 12.8984375 C17.42837274 14.85440934 18.75052629 16.8643469 20.03125 18.8984375 C20.77375 19.9709375 21.51625 21.0434375 22.28125 22.1484375 C24.03125 24.8984375 24.03125 24.8984375 24.03125 26.8984375 C24.69125 26.8984375 25.35125 26.8984375 26.03125 26.8984375 C34.03125 42.32926754 34.03125 42.32926754 34.03125 48.8984375 C34.69125 48.8984375 35.35125 48.8984375 36.03125 48.8984375 C36.32128906 50.43564453 36.32128906 50.43564453 36.6171875 52.00390625 C36.87994863 53.36463351 37.14298398 54.72530783 37.40625 56.0859375 C37.53257812 56.75947266 37.65890625 57.43300781 37.7890625 58.12695312 C38.53075999 61.92815276 39.56822357 65.32491763 41.03125 68.8984375 C41.34375 72.5859375 41.34375 72.5859375 41.03125 75.8984375 C37.81026116 78.0457634 37.08068002 78.13528577 33.39550781 78.04956055 C32.45733215 78.03261642 31.51915649 78.0156723 30.55255127 77.99821472 C29.5400531 77.96915543 28.52755493 77.94009613 27.484375 77.91015625 C25.9175296 77.87617485 25.9175296 77.87617485 24.31903076 77.84150696 C22.1064526 77.79151749 19.89398223 77.73654771 17.68164062 77.67700195 C14.30875893 77.58667421 10.93581241 77.51170316 7.5625 77.43945312 C5.4114368 77.38892957 3.26039406 77.33752564 1.109375 77.28515625 C-0.39722687 77.25067635 -0.39722687 77.25067635 -1.93426514 77.21549988 C-5.84240616 77.1069818 -9.62254715 76.94815863 -13.49609375 76.3918457 C-18.20313519 75.72305136 -22.86054606 75.68429539 -27.609375 75.6171875 C-28.61337341 75.59877808 -29.61737183 75.58036865 -30.65179443 75.56140137 C-34.92563742 75.48307682 -39.19962434 75.4147961 -43.47363281 75.34619141 C-46.60229349 75.29450544 -49.73081824 75.23727255 -52.859375 75.1796875 C-53.82812561 75.16611206 -54.79687622 75.15253662 -55.79498291 75.1385498 C-56.69311707 75.12183228 -57.59125122 75.10511475 -58.51660156 75.08789062 C-59.70071625 75.06909851 -59.70071625 75.06909851 -60.90875244 75.04992676 C-62.96875 74.8984375 -62.96875 74.8984375 -65.96875 73.8984375 C-67.54889838 73.80815331 -69.1321445 73.76693556 -70.71484375 73.7578125 C-72.09446289 73.72880859 -72.09446289 73.72880859 -73.50195312 73.69921875 C-75.43403546 73.66543654 -77.36645224 73.64714081 -79.29882812 73.64453125 C-86.28237663 73.45882457 -86.28237663 73.45882457 -89.62890625 70.7265625 C-91.21846231 67.37134796 -91.64595703 65.56019264 -90.96875 61.8984375 C-88.921875 59.59765625 -88.921875 59.59765625 -86.21875 57.5859375 C-85.33703125 56.90917969 -84.4553125 56.23242188 -83.546875 55.53515625 C-81.24172999 54.07173843 -79.63213979 53.32781576 -76.96875 52.8984375 C-76.96875 52.2384375 -76.96875 51.5784375 -76.96875 50.8984375 C-75.23828125 49.70703125 -75.23828125 49.70703125 -72.78125 48.3359375 C-68.24702393 45.69990621 -63.93292152 42.86278667 -59.63867188 39.85375977 C-53.13865298 35.3035604 -46.57333494 30.85017058 -40.01074219 26.39086914 C-35.5317924 23.34316574 -31.07035353 20.27516153 -26.640625 17.15625 C-23.28590912 14.80031176 -19.90157205 12.54267262 -16.40625 10.3984375 C-11.93814116 7.61378043 -7.91687884 4.53382401 -3.94140625 1.0859375 C-1.96875 -0.1015625 -1.96875 -0.1015625 0 0 Z " fill="#FBFBFB" transform="translate(522.96875,224.1015625)"/>
<path d="M0 0 C6.08490157 4.77589406 10.47398207 10.17548006 15.0625 16.375 C15.74376953 17.2825 16.42503906 18.19 17.12695312 19.125 C18.46193833 20.90498027 19.79233691 22.6884116 21.11767578 24.47558594 C22.34283657 26.11866798 23.58023817 27.75271632 24.83154297 29.37597656 C25.38084473 30.08979492 25.93014648 30.80361328 26.49609375 31.5390625 C26.98134521 32.16248535 27.46659668 32.7859082 27.96655273 33.42822266 C29 35 29 35 29 37 C29.66 37 30.32 37 31 37 C32.27448143 38.57365547 33.46898948 40.21237132 34.625 41.875 C38.07412548 46.75810256 41.70840394 51.40913935 45.53125 56.00390625 C47 58 47 58 47 60 C47.99 60 48.98 60 50 60 C50.625 63.375 50.625 63.375 51 67 C48.02305328 69.97694672 44.68803229 69.34204001 40.6875 69.4375 C30.65501888 69.80205237 20.87027801 71.15038142 10.96679688 72.74047852 C9 73 9 73 6 73 C6 73.66 6 74.32 6 75 C1.89658886 75.22556502 -2.20764988 75.42750038 -6.3125 75.625 C-7.47974609 75.68945312 -8.64699219 75.75390625 -9.84960938 75.8203125 C-10.96787109 75.871875 -12.08613281 75.9234375 -13.23828125 75.9765625 C-14.7857605 76.05511475 -14.7857605 76.05511475 -16.36450195 76.13525391 C-19 76 -19 76 -22 74 C-20.75297849 67.64549677 -19.42635741 61.31672565 -18 55 C-17.34 55 -16.68 55 -16 55 C-16.03480469 54.09507812 -16.03480469 54.09507812 -16.0703125 53.171875 C-16.08835937 52.37265625 -16.10640625 51.5734375 -16.125 50.75 C-16.14820313 49.96109375 -16.17140625 49.1721875 -16.1953125 48.359375 C-15.9828378 45.79268059 -15.28654105 44.2083933 -14 42 C-13.34 42 -12.68 42 -12 42 C-11.86722656 41.19175781 -11.73445313 40.38351562 -11.59765625 39.55078125 C-11.42105469 38.48214844 -11.24445313 37.41351563 -11.0625 36.3125 C-10.80146484 34.72888672 -10.80146484 34.72888672 -10.53515625 33.11328125 C-10.06832879 30.39750396 -9.55577384 27.69875765 -9 25 C-8.34 25 -7.68 25 -7 25 C-6.896875 24.113125 -6.79375 23.22625 -6.6875 22.3125 C-5.86580675 16.46397745 -4.37205912 10.73848624 -3 5 C-2.34 5 -1.68 5 -1 5 C-0.67 3.35 -0.34 1.7 0 0 Z " fill="#F9F9F9" transform="translate(371,342)"/>
<path d="M0 0 C20.13 0 40.26 0 61 0 C58 3 58 3 55.47529602 3.36076355 C53.96639046 3.3507708 53.96639046 3.3507708 52.42700195 3.34057617 C50.71556755 3.34023628 50.71556755 3.34023628 48.96955872 3.33988953 C47.12257637 3.31666374 47.12257637 3.31666374 45.23828125 3.29296875 C43.34688667 3.28660149 43.34688667 3.28660149 41.4172821 3.28010559 C38.06825057 3.26614627 34.71983242 3.23920104 31.37097168 3.20599365 C27.95244647 3.17528105 24.53385785 3.16159776 21.11523438 3.14648438 C14.40998651 3.11337223 7.70502867 3.06314018 1 3 C0.67 2.01 0.34 1.02 0 0 Z " fill="red" transform="translate(553,173)"/>
<path d="M0 0 C3.60447434 0.1387881 7.20848712 0.28723935 10.8125 0.4375 C12.34874023 0.49647461 12.34874023 0.49647461 13.91601562 0.55664062 C15.39038086 0.61948242 15.39038086 0.61948242 16.89453125 0.68359375 C18.25348511 0.73858032 18.25348511 0.73858032 19.63989258 0.79467773 C22 1 22 1 25 2 C26.48139229 2.10893946 27.96694295 2.16588265 29.45214844 2.18945312 C30.35028259 2.20617065 31.24841675 2.22288818 32.17376709 2.2401123 C33.1425177 2.25368774 34.11126831 2.26726318 35.109375 2.28125 C36.60963226 2.30886414 36.60963226 2.30886414 38.14019775 2.33703613 C41.34340504 2.39581516 44.54666662 2.44858136 47.75 2.5 C51.9532309 2.5679169 56.15630312 2.64168202 60.359375 2.71875 C61.80035553 2.73911316 61.80035553 2.73911316 63.27044678 2.7598877 C68.27244044 2.85170393 73.06640312 3.16045578 78 4 C78 4.33 78 4.66 78 5 C60.46556606 5.28337598 43.01576133 4.86213102 25.5 4.0625 C24.52035278 4.01893372 23.54070557 3.97536743 22.53137207 3.93048096 C19.71856181 3.80383672 16.90613419 3.67090605 14.09375 3.53515625 C13.24903137 3.49655991 12.40431274 3.45796356 11.53399658 3.41819763 C7.59720964 3.21855039 3.84794703 2.92940177 0 2 C0 1.34 0 0.68 0 0 Z " fill="red" transform="translate(435,296)"/>
<path d="M0 0 C1.20079193 0.03014442 1.20079193 0.03014442 2.42584229 0.06089783 C3.70730133 0.10145042 3.70730133 0.10145042 5.01464844 0.14282227 C5.89683044 0.16643326 6.77901245 0.19004425 7.68792725 0.21437073 C10.50013052 0.29082348 13.31204558 0.37492682 16.12402344 0.45922852 C18.03286359 0.51246761 19.94171773 0.56520789 21.85058594 0.61743164 C26.52524694 0.74641372 31.19966412 0.88225677 35.87402344 1.02172852 C35.87402344 1.35172852 35.87402344 1.68172852 35.87402344 2.02172852 C20.03402344 2.35172852 4.19402344 2.68172852 -12.12597656 3.02172852 C-7.77729957 0.84739002 -4.80530286 -0.13685989 0 0 Z " fill="red" transform="translate(580.1259765625,347.978271484375)"/>
<path d="M0 0 C2.05279359 4.10558718 2.2216942 5.80206685 2.125 10.25 C2.10695312 11.32765625 2.08890625 12.4053125 2.0703125 13.515625 C2.03550781 14.74539063 2.03550781 14.74539063 2 16 C3.65 16 5.3 16 7 16 C5.99796679 19.00609963 5.39971554 20.06176821 3 22 C2.01 22 1.02 22 0 22 C0 14.74 0 7.48 0 0 Z " fill="red" transform="translate(197,558)"/>
<path d="M0 0 C0.33 0 0.66 0 1 0 C0.67 4.62 0.34 9.24 0 14 C-0.66 14 -1.32 14 -2 14 C-2.04898438 14.63808594 -2.09796875 15.27617187 -2.1484375 15.93359375 C-2.22320312 16.75988281 -2.29796875 17.58617187 -2.375 18.4375 C-2.47941406 19.67306641 -2.47941406 19.67306641 -2.5859375 20.93359375 C-2.72257812 21.61550781 -2.85921875 22.29742187 -3 23 C-3.66 23.33 -4.32 23.66 -5 24 C-4.34 19.38 -3.68 14.76 -3 10 C-2.34 10 -1.68 10 -1 10 C-0.67 6.7 -0.34 3.4 0 0 Z " fill="red" transform="translate(100,442)"/>
<path d="M0 0 C1.44566043 2.89132087 0.29241705 4.84344212 -0.51953125 7.82421875 C-1.21010479 10.95145015 -1.13299912 13.80802105 -1 17 C-1.66 16.67 -2.32 16.34 -3 16 C-3.33 16.99 -3.66 17.98 -4 19 C-4.66 19 -5.32 19 -6 19 C-5.731875 18.071875 -5.46375 17.14375 -5.1875 16.1875 C-4.51198487 13.83767237 -3.86279727 11.48408973 -3.234375 9.12109375 C-2.83992187 7.63802734 -2.83992187 7.63802734 -2.4375 6.125 C-2.18871094 5.17882812 -1.93992187 4.23265625 -1.68359375 3.2578125 C-1 1 -1 1 0 0 Z " fill="red" transform="translate(599,573)"/>
<path d="M0 0 C-6.02215104 4.01476736 -11.99943109 4.28573751 -19 4 C-19 3.67 -19 3.34 -19 3 C-16.36 3 -13.72 3 -11 3 C-11 2.34 -11 1.68 -11 1 C-3.57142857 -1.42857143 -3.57142857 -1.42857143 0 0 Z " fill="red" transform="translate(166,125)"/>
<path d="M0 0 C0.66 0.33 1.32 0.66 2 1 C1.34 2.65 0.68 4.3 0 6 C-0.66 6 -1.32 6 -2 6 C-2.33 8.97 -2.66 11.94 -3 15 C-3.33 15 -3.66 15 -4 15 C-3.979375 13.906875 -3.95875 12.81375 -3.9375 11.6875 C-3.81455548 8.05615809 -3.81455548 8.05615809 -5 5 C-3.68 4.67 -2.36 4.34 -1 4 C-0.67 2.68 -0.34 1.36 0 0 Z " fill="red" transform="translate(370,341)"/>
<path d="M0 0 C6.25107435 0.42954941 12.04204521 1.01401507 18 3 C18 3.33 18 3.66 18 4 C15.03 4 12.06 4 9 4 C9 3.34 9 2.68 9 2 C6.03 2 3.06 2 0 2 C0 1.34 0 0.68 0 0 Z " fill="red" transform="translate(302,40)"/>
<path d="M0 0 C1.18771723 3.42943519 0.80226223 5.37784675 -0.4375 8.75 C-0.86869141 9.94882812 -0.86869141 9.94882812 -1.30859375 11.171875 C-1.53675781 11.77515625 -1.76492188 12.3784375 -2 13 C-2.66 13 -3.32 13 -4 13 C-4 11.68 -4 10.36 -4 9 C-3.34 9 -2.68 9 -2 9 C-1.7834375 7.329375 -1.7834375 7.329375 -1.5625 5.625 C-1 2 -1 2 0 0 Z " fill="red" transform="translate(318,659)"/>
<path d="M0 0 C1.53166168 4.08443115 0.63081652 7.79455657 0 12 C-0.99 12 -1.98 12 -3 12 C-2.49202991 7.6822542 -1.80317221 3.96697886 0 0 Z " fill="red" transform="translate(628,492)"/>
<path d="M0 0 C1.98 0.495 1.98 0.495 4 1 C3.34 1 2.68 1 2 1 C2 3.31 2 5.62 2 8 C1.34 8 0.68 8 0 8 C-0.33 8.66 -0.66 9.32 -1 10 C-1.125 3.375 -1.125 3.375 0 0 Z " fill="red" transform="translate(488,564)"/>
<path d="M0 0 C0.66 0.33 1.32 0.66 2 1 C1.01 2.485 1.01 2.485 0 4 C0.99 3.67 1.98 3.34 3 3 C3.33 4.32 3.66 5.64 4 7 C0.62496331 5.8141763 -1.64722731 4.72426311 -4 2 C-2.125 0.9375 -2.125 0.9375 0 0 Z " fill="red" transform="translate(322,938)"/>
<path d="M0 0 C2 3.75 2 3.75 2 6 C0.37373596 7.38232443 -1.2925002 8.71937515 -3 10 C-3.66 9.67 -4.32 9.34 -5 9 C-4.319375 8.1646875 -4.319375 8.1646875 -3.625 7.3125 C-1.96266232 4.94686561 -0.97855457 2.70984342 0 0 Z " fill="red" transform="translate(212,637)"/>
<path d="M0 0 C5.77807024 -0.2358396 10.51324804 0.13216954 16 2 C16 2.33 16 2.66 16 3 C13.03 3 10.06 3 7 3 C7 2.34 7 1.68 7 1 C4.69 1 2.38 1 0 1 C0 0.67 0 0.34 0 0 Z " fill="red" transform="translate(356,53)"/>
<path d="M0 0 C2.0625 0.4375 2.0625 0.4375 4 1 C3.34 2.32 2.68 3.64 2 5 C2 4.34 2 3.68 2 3 C1.01 3 0.02 3 -1 3 C-1 3.99 -1 4.98 -1 6 C-1.66 6 -2.32 6 -3 6 C-1.125 1.125 -1.125 1.125 0 0 Z " fill="red" transform="translate(359,564)"/>
<path d="M0 0 C1.32 0.66 2.64 1.32 4 2 C2.1875 3.5625 2.1875 3.5625 0 5 C-0.99 4.67 -1.98 4.34 -3 4 C-3 3.34 -3 2.68 -3 2 C-2.01 1.34 -1.02 0.68 0 0 Z " fill="red" transform="translate(468,257)"/>
<path d="M0 0 C1 2 1 2 0.25 5.5625 C-0.1625 6.696875 -0.575 7.83125 -1 9 C-1.99 9.33 -2.98 9.66 -4 10 C-3.29445932 6.33118845 -1.72264494 3.29549466 0 0 Z " fill="red" transform="translate(325,644)"/>
</svg>
